<svg width="64" height="64" viewBox="0 0 64 64" fill="none" xmlns="http://www.w3.org/2000/svg">
  <title>Resvyn</title>
  <rect x="1.5" y="1.5" width="61" height="61" rx="15" fill="#042519"/>
  <defs>
    <clipPath id="resvyn-shield">
      <path d="M32 13 L49 20 V32 C49 42 42 49.5 32 53 C22 49.5 15 42 15 32 V20 Z"/>
    </clipPath>
  </defs>
  <path d="M32 13 L49 20 V32 C49 42 42 49.5 32 53 C22 49.5 15 42 15 32 V20 Z" fill="#063a27"/>
  <g clip-path="url(#resvyn-shield)">
    <rect x="12" y="36.4" width="40" height="20" fill="#04cfa6"/>
    <rect x="12" y="35.4" width="40" height="1.5" fill="#e6f6f5"/>
  </g>
  <path d="M32 13 L49 20 V32 C49 42 42 49.5 32 53 C22 49.5 15 42 15 32 V20 Z" fill="none" stroke="#e6f6f5" stroke-width="2.4" stroke-linejoin="round"/>
</svg>
